# xmcd
#
# Track frame offsets:
#	150
#	15960
#	30067
#	46600
#	72455
#	84510
#	98630
#	115055
#	125860
#	140357
#
# Disc length: 2117 seconds
#
# Revision: 1
# Processed by: cddbd v1.5.1PL2 Copyright (c) Steve Scherf et al.
# Submitted via: audiograbber 1.80
#
DISCID=7108430a
DTITLE=Jenna and Strange Cargo - Babies In The Bushes
DYEAR=1900
DGENRE=
TTITLE0=Mother Earth Blues
TTITLE1=Daytona Beaches
TTITLE2=Busy
TTITLE3=Ophilia
TTITLE4=Babies In The Bushes
TTITLE5=Fairies In The Smoke
TTITLE6=Metamorph
TTITLE7=Radical
TTITLE8=Killin' Time
TTITLE9=Dancer
EXTD=
EXTT0=
EXTT1=
EXTT2=
EXTT3=
EXTT4=
EXTT5=
EXTT6=
EXTT7=
EXTT8=
EXTT9=
PLAYORDER=
